<svg width="1068" height="298" viewBox="0 0 1068 298" fill="none" xmlns="http://www.w3.org/2000/svg">
<path d="M406.965 6.4V3.76H409.605V6.4H406.965ZM404.325 6.4V3.76H406.965V6.4H404.325ZM399.045 19.6V16.96H401.685V19.6H399.045ZM399.045 11.68V9.04H401.685V11.68H399.045ZM399.045 9.04V6.4H401.685V9.04H399.045ZM401.685 22.24V19.6H404.325V22.24H401.685ZM401.685 19.6V16.96H404.325V19.6H401.685ZM401.685 14.32V11.68H404.325V14.32H401.685ZM401.685 11.68V9.04H404.325V11.68H401.685ZM401.685 9.04V6.4H404.325V9.04H401.685ZM401.685 6.4V3.76H404.325V6.4H401.685ZM404.325 14.32V11.68H406.965V14.32H404.325ZM406.965 14.32V11.68H409.605V14.32H406.965ZM409.605 22.24V19.6H412.245V22.24H409.605ZM409.605 19.6V16.96H412.245V19.6H409.605ZM409.605 16.96V14.32H412.245V16.96H409.605ZM409.605 14.32V11.68H412.245V14.32H409.605ZM409.605 9.04V6.4H412.245V9.04H409.605ZM409.605 6.4V3.76H412.245V6.4H409.605ZM412.245 19.6V16.96H414.885V19.6H412.245ZM412.245 16.96V14.32H414.885V16.96H412.245ZM412.245 9.04V6.4H414.885V9.04H412.245ZM404.325 22.24V19.6H406.965V22.24H404.325ZM406.965 22.24V19.6H409.605V22.24H406.965ZM433.354 22.24V19.6H435.994V22.24H433.354ZM433.354 19.6V16.96H435.994V19.6H433.354ZM433.354 16.96V14.32H435.994V16.96H433.354ZM433.354 14.32V11.68H435.994V14.32H433.354ZM433.354 11.68V9.04H435.994V11.68H433.354ZM433.354 9.04V6.4H435.994V9.04H433.354ZM433.354 6.4V3.76H435.994V6.4H433.354ZM435.994 22.24V19.6H438.634V22.24H435.994ZM435.994 19.6V16.96H438.634V19.6H435.994ZM435.994 16.96V14.32H438.634V16.96H435.994ZM435.994 14.32V11.68H438.634V14.32H435.994ZM435.994 11.68V9.04H438.634V11.68H435.994ZM435.994 9.04V6.4H438.634V9.04H435.994ZM435.994 6.4V3.76H438.634V6.4H435.994ZM428.074 6.4V3.76H430.714V6.4H428.074ZM430.714 6.4V3.76H433.354V6.4H430.714ZM438.634 6.4V3.76H441.274V6.4H438.634ZM441.274 6.4V3.76H443.914V6.4H441.274ZM457.102 22.24V19.6H459.742V22.24H457.102ZM457.102 19.6V16.96H459.742V19.6H457.102ZM457.102 16.96V14.32H459.742V16.96H457.102ZM457.102 14.32V11.68H459.742V14.32H457.102ZM457.102 11.68V9.04H459.742V11.68H457.102ZM457.102 9.04V6.4H459.742V9.04H457.102ZM459.742 22.24V19.6H462.382V22.24H459.742ZM459.742 19.6V16.96H462.382V19.6H459.742ZM459.742 16.96V14.32H462.382V16.96H459.742ZM459.742 14.32V11.68H462.382V14.32H459.742ZM459.742 11.68V9.04H462.382V11.68H459.742ZM459.742 9.04V6.4H462.382V9.04H459.742ZM459.742 6.4V3.76H462.382V6.4H459.742ZM462.382 16.96V14.32H465.022V16.96H462.382ZM465.022 16.96V14.32H467.662V16.96H465.022ZM467.662 22.24V19.6H470.302V22.24H467.662ZM467.662 19.6V16.96H470.302V19.6H467.662ZM467.662 16.96V14.32H470.302V16.96H467.662ZM467.662 14.32V11.68H470.302V14.32H467.662ZM467.662 11.68V9.04H470.302V11.68H467.662ZM467.662 9.04V6.4H470.302V9.04H467.662ZM467.662 6.4V3.76H470.302V6.4H467.662ZM470.302 22.24V19.6H472.942V22.24H470.302ZM470.302 19.6V16.96H472.942V19.6H470.302ZM470.302 16.96V14.32H472.942V16.96H470.302ZM470.302 14.32V11.68H472.942V14.32H470.302ZM470.302 11.68V9.04H472.942V11.68H470.302ZM470.302 9.04V6.4H472.942V9.04H470.302ZM462.382 6.4V3.76H465.022V6.4H462.382ZM465.022 6.4V3.76H467.662V6.4H465.022ZM486.131 22.24V19.6H488.771V22.24H486.131ZM486.131 19.6V16.96H488.771V19.6H486.131ZM486.131 16.96V14.32H488.771V16.96H486.131ZM486.131 14.32V11.68H488.771V14.32H486.131ZM486.131 11.68V9.04H488.771V11.68H486.131ZM486.131 9.04V6.4H488.771V9.04H486.131ZM488.771 22.24V19.6H491.411V22.24H488.771ZM488.771 19.6V16.96H491.411V19.6H488.771ZM488.771 16.96V14.32H491.411V16.96H488.771ZM488.771 14.32V11.68H491.411V14.32H488.771ZM488.771 11.68V9.04H491.411V11.68H488.771ZM488.771 9.04V6.4H491.411V9.04H488.771ZM488.771 6.4V3.76H491.411V6.4H488.771ZM491.411 14.32V11.68H494.051V14.32H491.411ZM494.051 14.32V11.68H496.691V14.32H494.051ZM496.691 22.24V19.6H499.331V22.24H496.691ZM496.691 19.6V16.96H499.331V19.6H496.691ZM496.691 16.96V14.32H499.331V16.96H496.691ZM496.691 14.32V11.68H499.331V14.32H496.691ZM496.691 11.68V9.04H499.331V11.68H496.691ZM496.691 9.04V6.4H499.331V9.04H496.691ZM496.691 6.4V3.76H499.331V6.4H496.691ZM499.331 22.24V19.6H501.971V22.24H499.331ZM499.331 19.6V16.96H501.971V19.6H499.331ZM499.331 16.96V14.32H501.971V16.96H499.331ZM499.331 11.68V9.04H501.971V11.68H499.331ZM499.331 9.04V6.4H501.971V9.04H499.331ZM491.411 6.4V3.76H494.051V6.4H491.411ZM494.051 6.4V3.76H496.691V6.4H494.051ZM486.131 6.4V3.76H488.771V6.4H486.131ZM520.44 22.24V19.6H523.08V22.24H520.44ZM520.44 19.6V16.96H523.08V19.6H520.44ZM520.44 16.96V14.32H523.08V16.96H520.44ZM520.44 14.32V11.68H523.08V14.32H520.44ZM520.44 11.68V9.04H523.08V11.68H520.44ZM520.44 9.04V6.4H523.08V9.04H520.44ZM520.44 6.4V3.76H523.08V6.4H520.44ZM523.08 22.24V19.6H525.72V22.24H523.08ZM523.08 19.6V16.96H525.72V19.6H523.08ZM523.08 16.96V14.32H525.72V16.96H523.08ZM523.08 14.32V11.68H525.72V14.32H523.08ZM523.08 11.68V9.04H525.72V11.68H523.08ZM523.08 9.04V6.4H525.72V9.04H523.08ZM523.08 6.4V3.76H525.72V6.4H523.08ZM515.16 6.4V3.76H517.8V6.4H515.16ZM517.8 6.4V3.76H520.44V6.4H517.8ZM525.72 6.4V3.76H528.36V6.4H525.72ZM528.36 6.4V3.76H531V6.4H528.36ZM573.239 19.6V16.96H575.879V19.6H573.239ZM570.599 16.96V14.32H573.239V16.96H570.599ZM570.599 14.32V11.68H573.239V14.32H570.599ZM567.959 9.04V6.4H570.599V9.04H567.959ZM573.239 16.96V14.32H575.879V16.96H573.239ZM573.239 14.32V11.68H575.879V14.32H573.239ZM570.599 22.24V19.6H573.239V22.24H570.599ZM570.599 19.6V16.96H573.239V19.6H570.599ZM565.319 9.04V6.4H567.959V9.04H565.319ZM567.959 6.4V3.76H570.599V6.4H567.959ZM573.239 22.24V19.6H575.879V22.24H573.239ZM567.959 11.68V9.04H570.599V11.68H567.959ZM575.879 11.68V9.04H578.519V11.68H575.879ZM578.519 11.68V9.04H581.159V11.68H578.519ZM565.319 11.68V9.04H567.959V11.68H565.319ZM565.319 6.4V3.76H567.959V6.4H565.319ZM578.519 9.04V6.4H581.159V9.04H578.519ZM575.879 9.04V6.4H578.519V9.04H575.879ZM578.519 6.4V3.76H581.159V6.4H578.519ZM575.879 6.4V3.76H578.519V6.4H575.879ZM575.879 14.32V11.68H578.519V14.32H575.879ZM567.959 14.32V11.68H570.599V14.32H567.959ZM594.348 19.6V16.96H596.988V19.6H594.348ZM594.348 16.96V14.32H596.988V16.96H594.348ZM594.348 14.32V11.68H596.988V14.32H594.348ZM594.348 11.68V9.04H596.988V11.68H594.348ZM594.348 9.04V6.4H596.988V9.04H594.348ZM596.988 22.24V19.6H599.628V22.24H596.988ZM596.988 19.6V16.96H599.628V19.6H596.988ZM596.988 16.96V14.32H599.628V16.96H596.988ZM596.988 14.32V11.68H599.628V14.32H596.988ZM596.988 11.68V9.04H599.628V11.68H596.988ZM596.988 9.04V6.4H599.628V9.04H596.988ZM596.988 6.4V3.76H599.628V6.4H596.988ZM604.908 22.24V19.6H607.548V22.24H604.908ZM604.908 19.6V16.96H607.548V19.6H604.908ZM604.908 9.04V6.4H607.548V9.04H604.908ZM604.908 6.4V3.76H607.548V6.4H604.908ZM607.548 19.6V16.96H610.188V19.6H607.548ZM607.548 9.04V6.4H610.188V9.04H607.548ZM599.628 6.4V3.76H602.268V6.4H599.628ZM602.268 6.4V3.76H604.908V6.4H602.268ZM599.628 22.24V19.6H602.268V22.24H599.628ZM602.268 22.24V19.6H604.908V22.24H602.268ZM604.908 16.96V14.32H607.548V16.96H604.908ZM604.908 14.32V11.68H607.548V14.32H604.908ZM604.908 11.68V9.04H607.548V11.68H604.908ZM607.548 16.96V14.32H610.188V16.96H607.548ZM607.548 14.32V11.68H610.188V14.32H607.548ZM607.548 11.68V9.04H610.188V11.68H607.548ZM623.377 19.6V16.96H626.017V19.6H623.377ZM623.377 16.96V14.32H626.017V16.96H623.377ZM623.377 14.32V11.68H626.017V14.32H623.377ZM623.377 11.68V9.04H626.017V11.68H623.377ZM623.377 9.04V6.4H626.017V9.04H623.377ZM623.377 6.4V3.76H626.017V6.4H623.377ZM626.017 22.24V19.6H628.657V22.24H626.017ZM626.017 19.6V16.96H628.657V19.6H626.017ZM626.017 16.96V14.32H628.657V16.96H626.017ZM626.017 14.32V11.68H628.657V14.32H626.017ZM626.017 11.68V9.04H628.657V11.68H626.017ZM626.017 9.04V6.4H628.657V9.04H626.017ZM626.017 6.4V3.76H628.657V6.4H626.017ZM628.657 22.24V19.6H631.297V22.24H628.657ZM631.297 22.24V19.6H633.937V22.24H631.297ZM633.937 22.24V19.6H636.577V22.24H633.937ZM633.937 19.6V16.96H636.577V19.6H633.937ZM633.937 16.96V14.32H636.577V16.96H633.937ZM633.937 14.32V11.68H636.577V14.32H633.937ZM633.937 11.68V9.04H636.577V11.68H633.937ZM633.937 9.04V6.4H636.577V9.04H633.937ZM633.937 6.4V3.76H636.577V6.4H633.937ZM636.577 19.6V16.96H639.217V19.6H636.577ZM636.577 16.96V14.32H639.217V16.96H636.577ZM636.577 14.32V11.68H639.217V14.32H636.577ZM636.577 11.68V9.04H639.217V11.68H636.577ZM636.577 9.04V6.4H639.217V9.04H636.577ZM636.577 6.4V3.76H639.217V6.4H636.577ZM652.405 22.24V19.6H655.045V22.24H652.405ZM652.405 19.6V16.96H655.045V19.6H652.405ZM652.405 16.96V14.32H655.045V16.96H652.405ZM652.405 14.32V11.68H655.045V14.32H652.405ZM652.405 11.68V9.04H655.045V11.68H652.405ZM652.405 9.04V6.4H655.045V9.04H652.405ZM655.045 22.24V19.6H657.685V22.24H655.045ZM655.045 19.6V16.96H657.685V19.6H655.045ZM655.045 16.96V14.32H657.685V16.96H655.045ZM655.045 14.32V11.68H657.685V14.32H655.045ZM655.045 11.68V9.04H657.685V11.68H655.045ZM655.045 9.04V6.4H657.685V9.04H655.045ZM655.045 6.4V3.76H657.685V6.4H655.045ZM657.685 14.32V11.68H660.325V14.32H657.685ZM660.325 14.32V11.68H662.965V14.32H660.325ZM662.965 22.24V19.6H665.605V22.24H662.965ZM662.965 19.6V16.96H665.605V19.6H662.965ZM662.965 16.96V14.32H665.605V16.96H662.965ZM662.965 14.32V11.68H665.605V14.32H662.965ZM662.965 11.68V9.04H665.605V11.68H662.965ZM662.965 9.04V6.4H665.605V9.04H662.965ZM662.965 6.4V3.76H665.605V6.4H662.965ZM665.605 22.24V19.6H668.245V22.24H665.605ZM665.605 19.6V16.96H668.245V19.6H665.605ZM665.605 16.96V14.32H668.245V16.96H665.605ZM665.605 11.68V9.04H668.245V11.68H665.605ZM665.605 9.04V6.4H668.245V9.04H665.605ZM657.685 6.4V3.76H660.325V6.4H657.685ZM660.325 6.4V3.76H662.965V6.4H660.325ZM652.405 6.4V3.76H655.045V6.4H652.405Z" fill="#042D4D"/>
<g filter="url(#filter0_d_142_8929)">
<path d="M346.139 54.625H393.014V64H402.389V73.375H383.639V64H355.514V73.375H346.139V120.25H355.514V129.625H383.639V120.25H402.389V129.625H393.014V139H346.139V129.625H336.764V120.25H327.389V73.375H336.764V64H346.139V54.625ZM421.139 82.75H458.639V92.125H468.014V129.625H458.639V139H421.139V129.625H411.764V92.125H421.139V82.75ZM430.514 92.125V129.625H449.264V92.125H430.514ZM505.514 54.625H533.639V129.625H543.014V139H486.764V129.625H477.389V92.125H486.764V82.75H514.889V64H505.514V54.625ZM496.139 92.125V129.625H514.889V92.125H496.139ZM561.764 64H580.514V73.375H561.764V64ZM552.389 82.75H580.514V129.625H589.889V139H552.389V129.625H561.764V92.125H552.389V82.75ZM599.264 82.75H655.514V92.125H664.889V139H646.139V92.125H627.389V139H599.264V129.625H608.639V92.125H599.264V82.75ZM683.639 82.75H721.139V92.125H730.514V167.125H693.014V157.75H683.639V148.375H702.389V157.75H711.764V139H683.639V129.625H674.264V92.125H683.639V82.75ZM693.014 92.125V129.625H711.764V92.125H693.014Z" fill="url(#paint0_linear_142_8929)"/>
</g>
<g filter="url(#filter1_d_142_8929)">
<path d="M233.639 169.625H299.264V254H280.514V216.5H252.389V254H224.264V244.625H233.639V188.375H243.014V179H233.639V169.625ZM252.389 179V207.125H280.514V179H252.389ZM224.264 179H233.639V188.375H224.264V179ZM336.764 169.625H364.889V244.625H374.264V254H318.014V244.625H308.639V207.125H318.014V197.75H346.139V179H336.764V169.625ZM327.389 207.125V244.625H346.139V207.125H327.389ZM383.639 197.75H411.764V235.25H421.139V225.875H430.514V197.75H449.264V225.875H439.889V235.25H430.514V244.625H421.139V254H393.014V207.125H383.639V197.75ZM468.014 197.75H505.514V207.125H514.889V235.25H477.389V244.625H514.889V254H458.639V207.125H468.014V197.75ZM477.389 207.125V225.875H496.139V207.125H477.389ZM524.264 197.75H580.514V207.125H589.889V254H571.139V207.125H552.389V254H524.264V244.625H533.639V207.125H524.264V197.75ZM608.639 169.625H627.389V197.75H636.764V207.125H627.389V244.625H636.764V254H608.639V207.125H599.264V197.75H608.639V169.625ZM646.139 197.75H664.889V244.625H683.639V197.75H702.389V254H655.514V244.625H646.139V197.75ZM711.764 197.75H739.889V207.125H749.264V197.75H768.014V216.5H739.889V244.625H749.264V254H711.764V244.625H721.139V207.125H711.764V197.75ZM786.764 197.75H824.264V207.125H833.639V235.25H796.139V244.625H833.639V254H777.389V207.125H786.764V197.75ZM796.139 207.125V225.875H814.889V207.125H796.139Z" fill="url(#paint1_linear_142_8929)"/>
</g>
<defs>
<filter id="filter0_d_142_8929" x="327.39" y="54.625" width="403.125" height="121.5" filterUnits="userSpaceOnUse" color-interpolation-filters="sRGB">
<feFlood flood-opacity="0" result="BackgroundImageFix"/>
<feColorMatrix in="SourceAlpha" type="matrix" values="0 0 0 0 0 0 0 0 0 0 0 0 0 0 0 0 0 0 127 0" result="hardAlpha"/>
<feOffset dy="9"/>
<feComposite in2="hardAlpha" operator="out"/>
<feColorMatrix type="matrix" values="0 0 0 0 0.00784314 0 0 0 0 0.0235294 0 0 0 0 0.0901961 0 0 0 1 0"/>
<feBlend mode="normal" in2="BackgroundImageFix" result="effect1_dropShadow_142_8929"/>
<feBlend mode="normal" in="SourceGraphic" in2="effect1_dropShadow_142_8929" result="shape"/>
</filter>
<filter id="filter1_d_142_8929" x="224.265" y="169.625" width="609.375" height="93.375" filterUnits="userSpaceOnUse" color-interpolation-filters="sRGB">
<feFlood flood-opacity="0" result="BackgroundImageFix"/>
<feColorMatrix in="SourceAlpha" type="matrix" values="0 0 0 0 0 0 0 0 0 0 0 0 0 0 0 0 0 0 127 0" result="hardAlpha"/>
<feOffset dy="9"/>
<feComposite in2="hardAlpha" operator="out"/>
<feColorMatrix type="matrix" values="0 0 0 0 0.00784314 0 0 0 0 0.0235294 0 0 0 0 0.0901961 0 0 0 1 0"/>
<feBlend mode="normal" in2="BackgroundImageFix" result="effect1_dropShadow_142_8929"/>
<feBlend mode="normal" in="SourceGraphic" in2="effect1_dropShadow_142_8929" result="shape"/>
</filter>
<linearGradient id="paint0_linear_142_8929" x1="534" y1="59.5" x2="534" y2="139" gradientUnits="userSpaceOnUse">
<stop stop-color="#FEFCE8"/>
<stop offset="1" stop-color="#FACC15"/>
</linearGradient>
<linearGradient id="paint1_linear_142_8929" x1="534" y1="174.5" x2="534" y2="254" gradientUnits="userSpaceOnUse">
<stop stop-color="#FEFCE8"/>
<stop offset="1" stop-color="#FACC15"/>
</linearGradient>
</defs>
</svg>
