<?xml version="1.0" encoding="UTF-8" standalone="no"?>
<svg width="1000" height="600" viewBox="0 0 1000 600" fill="none" xmlns="http://www.w3.org/2000/svg">
  <rect width="1000" height="600" fill="#131a2b"/>
  
  <!-- Sky with pixels -->
  <rect x="0" y="0" width="1000" height="400" fill="#3b82f6"/>
  
  <!-- Clouds -->
  <rect x="100" y="100" width="100" height="50" fill="#f9fafb"/>
  <rect x="150" y="150" width="100" height="50" fill="#f9fafb"/>
  <rect x="200" y="100" width="100" height="50" fill="#f9fafb"/>
  
  <rect x="500" y="80" width="100" height="50" fill="#f9fafb"/>
  <rect x="550" y="130" width="100" height="50" fill="#f9fafb"/>
  <rect x="600" y="80" width="100" height="50" fill="#f9fafb"/>
  
  <rect x="800" y="150" width="100" height="50" fill="#f9fafb"/>
  <rect x="850" y="200" width="100" height="50" fill="#f9fafb"/>
  <rect x="900" y="150" width="100" height="50" fill="#f9fafb"/>
  
  <!-- Mountains -->
  <polygon points="0,400 200,200 400,400" fill="#4ade80"/>
  <polygon points="350,400 550,150 750,400" fill="#16a34a"/>
  <polygon points="700,400 850,250 1000,400" fill="#4ade80"/>
  
  <!-- Ground -->
  <rect x="0" y="400" width="1000" height="200" fill="#1e293b"/>
</svg> 